<svg width="1008" height="1344" xmlns="http://www.w3.org/2000/svg" xmlns:xlink="http://www.w3.org/1999/xlink" overflow="hidden"><defs><clipPath id="clip0"><rect x="0" y="0" width="1008" height="1344"/></clipPath></defs><g clip-path="url(#clip0)"><rect x="0" y="0" width="1008" height="1344" fill="#FFFFFF" fill-opacity="0"/><path d="M324.5 141.5 369.7 28.5001 550.5 28.5001 505.3 141.5Z" stroke="#FFFFFF" stroke-width="3" stroke-miterlimit="8" fill="#FFFFFF" fill-rule="evenodd" fill-opacity="0.501961"/><text fill="#FFFFFF" font-family="Josefin Sans,Josefin Sans_MSFontService,sans-serif" font-weight="600" font-size="19" transform="translate(407.871 67)">Digital <tspan x="-11.08" y="24">Elevation </tspan><tspan x="-30.1667" y="48">Model (DEM)</tspan></text><path d="M560.5 141.5 604.1 28.5001 778.5 28.5001 734.9 141.5Z" stroke="#FFFFFF" stroke-width="3" stroke-miterlimit="8" fill="#FFFFFF" fill-rule="evenodd" fill-opacity="0.501961"/><text fill="#FFFFFF" font-family="Josefin Sans,Josefin Sans_MSFontService,sans-serif" font-weight="600" font-size="19" transform="translate(612.719 91)">Historic Map</text><rect x="324.5" y="309.5" width="454" height="76" stroke="#FFFFFF" stroke-width="3" stroke-miterlimit="8" fill="#FFFFFF" fill-opacity="0.501961"/><text fill="#FFFFFF" font-family="Josefin Sans,Josefin Sans_MSFontService,sans-serif" font-weight="600" font-size="24" transform="translate(426.515 355)">Crop to desired extent</text><path d="M324.5 225.5 415.3 187.5 687.7 187.5 778.5 225.5 687.7 263.5 415.3 263.5Z" stroke="#FFFFFF" stroke-width="3" stroke-miterlimit="8" fill="#FFFFFF" fill-rule="evenodd" fill-opacity="0.501961"/><text fill="#FFFFFF" font-family="Josefin Sans,Josefin Sans_MSFontService,sans-serif" font-weight="600" font-size="22" transform="translate(416.931 232)">Convert to a common CRS</text><path d="M827.5 187.5C842.136 187.5 854 203.946 854 224.234L854 249.766C854 270.054 865.865 286.5 880.5 286.5 865.865 286.5 854 302.946 854 323.234L854 348.766C854 369.054 842.136 385.5 827.5 385.5" stroke="#FFFFFF" stroke-width="1.33333" stroke-miterlimit="8" fill="none" fill-rule="evenodd"/><text fill="#FFFFFF" font-family="Josefin Sans,Josefin Sans_MSFontService,sans-serif" font-weight="300" font-size="17" transform="translate(914.115 291)">QGIS</text><path d="M324.5 469 369.7 431.5 505.3 431.5 550.5 469 505.3 506.5 369.7 506.5Z" stroke="#FFFFFF" stroke-width="3" stroke-miterlimit="8" fill="#FFFFFF" fill-rule="evenodd" fill-opacity="0.501961"/><text fill="#FFFFFF" font-family="Josefin Sans,Josefin Sans_MSFontService,sans-serif" font-weight="600" font-size="22" transform="translate(383.791 462)">Convert to <tspan x="-8.08667" y="28">16</tspan>-<tspan x="18.08" y="28">bit image</tspan></text><path d="M827.5 431.5C842.136 431.5 854 439.895 854 450.25L854 450.25C854 460.605 865.865 469 880.5 469 865.865 469 854 477.395 854 487.75L854 487.75C854 498.105 842.136 506.5 827.5 506.5" stroke="#FFFFFF" stroke-width="1.33333" stroke-miterlimit="8" fill="none" fill-rule="evenodd"/><text fill="#FFFFFF" font-family="Josefin Sans,Josefin Sans_MSFontService,sans-serif" font-weight="300" font-size="17" transform="translate(914.198 473)">GIMP</text><path d="M52.5001 568.5 278.5 553.5 278.5 628.5 52.5001 628.5Z" stroke="#FFFFFF" stroke-width="3" stroke-miterlimit="8" fill="#FFFFFF" fill-rule="evenodd" fill-opacity="0.501961"/><text fill="#FFFFFF" font-family="Josefin Sans,Josefin Sans_MSFontService,sans-serif" font-weight="600" font-size="24" transform="translate(93.1214 606)">Create plane</text><path d="M438.167 141.5 438.167 186.36 436.833 186.36 436.833 141.5ZM444.75 174.684 437.5 187.733 430.251 174.684C430.072 174.362 430.188 173.956 430.51 173.777 430.832 173.599 431.237 173.714 431.416 174.036L438.083 186.036 436.917 186.036 443.584 174.036C443.763 173.714 444.169 173.599 444.491 173.777 444.812 173.956 444.928 174.362 444.75 174.684Z" fill="#FFFFFF"/><path d="M0.66667 1.37334 0.666772 46.2332-0.666562 46.2332-0.666664 1.37334ZM-7.24941 13.0496 5.31428e-08 0.000582554 7.24947 13.0496C7.42828 13.3714 7.31231 13.7773 6.99046 13.9561 6.6686 14.1349 6.26274 14.0189 6.08393 13.6971L-0.582768 1.6971 0.582775 1.69709-6.08386 13.6971C-6.26267 14.019-6.66854 14.1349-6.9904 13.9561-7.31225 13.7773-7.42822 13.3714-7.24941 13.0496Z" fill="#FFFFFF" transform="matrix(1 0 0 -1 437.5 431.733)"/><rect x="324.5" y="672.5" width="226" height="76" fill="#FFFFFF" fill-opacity="0.501961"/><path d="M352.75 672.5 352.75 748.5M522.25 672.5 522.25 748.5" stroke="#FFFFFF" stroke-width="3" stroke-miterlimit="8" fill="none" fill-rule="evenodd"/><rect x="324.5" y="672.5" width="226" height="76" stroke="#FFFFFF" stroke-width="3" stroke-miterlimit="8" fill="none"/><text fill="#FFFFFF" font-family="Josefin Sans,Josefin Sans_MSFontService,sans-serif" font-weight="600" font-size="24" transform="translate(390.288 717)">Displace</text><rect x="570.5" y="672.5" width="208" height="76" fill="#FFFFFF" fill-opacity="0.501961"/><path d="M596.5 672.5 596.5 748.5M752.5 672.5 752.5 748.5" stroke="#FFFFFF" stroke-width="3" stroke-miterlimit="8" fill="none" fill-rule="evenodd"/><rect x="570.5" y="672.5" width="208" height="76" stroke="#FFFFFF" stroke-width="3" stroke-miterlimit="8" fill="none"/><text fill="#FFFFFF" font-family="Josefin Sans,Josefin Sans_MSFontService,sans-serif" font-weight="600" font-size="24" transform="translate(632.236 717)">Texture</text><path d="M436.834 671.527 436.833 588.5 438.167 588.5 438.167 671.527ZM444.75 659.851 437.501 672.9 430.251 659.851C430.072 659.529 430.188 659.123 430.51 658.944 430.832 658.766 431.238 658.881 431.417 659.203L438.084 671.203 436.918 671.203 443.585 659.203C443.763 658.881 444.169 658.765 444.491 658.944 444.813 659.123 444.929 659.529 444.75 659.851Z" fill="#FFFFFF"/><path d="M646.833 186.36 646.833 141.5 648.167 141.5 648.167 186.36ZM654.75 174.684 647.5 187.733 640.251 174.684C640.072 174.362 640.188 173.956 640.51 173.777 640.832 173.599 641.237 173.715 641.416 174.036L648.083 186.036 646.917 186.036 653.584 174.036C653.763 173.714 654.169 173.599 654.491 173.777 654.812 173.956 654.928 174.362 654.75 174.684Z" fill="#FFFFFF"/><path d="M0.66667 1.37334 0.666772 46.2334-0.666562 46.2334-0.666664 1.37334ZM-7.24941 13.0496 5.3124e-08 0.000582554 7.24947 13.0496C7.42828 13.3714 7.31231 13.7773 6.99046 13.9561 6.6686 14.1349 6.26274 14.0189 6.08393 13.6971L-0.582768 1.6971 0.582775 1.69709-6.08386 13.6971C-6.26267 14.019-6.66854 14.1349-6.9904 13.9561-7.31225 13.7773-7.42822 13.3714-7.24941 13.0496Z" fill="#FFFFFF" transform="matrix(1 0 0 -1 649.5 309.733)"/><path d="M0.66667 1.37334 0.666772 46.2334-0.666562 46.2334-0.666664 1.37334ZM-7.24941 13.0496 5.3124e-08 0.000582554 7.24947 13.0496C7.42828 13.3714 7.31231 13.7773 6.99046 13.9561 6.6686 14.1349 6.26274 14.0189 6.08393 13.6971L-0.582768 1.6971 0.582775 1.69709-6.08386 13.6971C-6.26267 14.019-6.66854 14.1349-6.9904 13.9561-7.31225 13.7773-7.42822 13.3714-7.24941 13.0496Z" fill="#FFFFFF" transform="matrix(1 0 0 -1 437.5 309.733)"/><path d="M0-0.666667 84.3393-0.666667 84.3393 25.3888 83.6727 24.7221 285.976 24.7221 285.976 26.0554 83.006 26.0554 83.006 0 83.6727 0.666667 0 0.666667ZM274.298 18.1393 287.347 25.3888 274.298 32.6382C273.976 32.817 273.57 32.701 273.391 32.3792 273.213 32.0573 273.329 31.6515 273.65 31.4727L285.65 24.806 285.65 25.9715 273.65 19.3049C273.329 19.1261 273.213 18.7202 273.391 18.3983 273.57 18.0765 273.976 17.9605 274.298 18.1393Z" fill="#FFFFFF" transform="matrix(-4.37114e-08 1 1 4.37114e-08 649.5 385.5)"/><path d="M278.5 602.833 436.003 602.833 436.003 604.167 278.5 604.167ZM424.327 596.251 437.376 603.5 424.327 610.75C424.005 610.928 423.599 610.812 423.42 610.491 423.242 610.169 423.358 609.763 423.679 609.584L435.679 602.917 435.679 604.083 423.679 597.416C423.358 597.237 423.242 596.832 423.42 596.51 423.599 596.188 424.005 596.072 424.327 596.251Z" fill="#FFFFFF"/><path d="M278.5 583.833 672.627 583.833 672.627 585.167 278.5 585.167ZM660.942 577.251 673.991 584.5 660.942 591.75C660.62 591.928 660.214 591.812 660.035 591.491 659.856 591.169 659.972 590.763 660.294 590.584L672.294 583.917 672.294 585.083 660.294 578.416C659.972 578.237 659.856 577.832 660.035 577.51 660.214 577.188 660.62 577.072 660.942 577.251Z" fill="#FFFFFF"/><rect x="324.5" y="793.5" width="454" height="75" stroke="#FFFFFF" stroke-width="3" stroke-miterlimit="8" fill="#FFFFFF" fill-opacity="0.501961"/><text fill="#FFFFFF" font-family="Josefin Sans,Josefin Sans_MSFontService,sans-serif" font-weight="600" font-size="24" transform="translate(511.348 838)">Render</text><path d="M438.5 1028.5 483.7 915.5 664.5 915.5 619.3 1028.5Z" stroke="#FFFFFF" stroke-width="3" stroke-miterlimit="8" fill="#FFFFFF" fill-rule="evenodd" fill-opacity="0.501961"/><text fill="#FFFFFF" font-family="Josefin Sans,Josefin Sans_MSFontService,sans-serif" font-weight="600" font-size="24" transform="translate(489.265 964)">3D Historic <tspan x="36" y="31">Map</tspan></text><path d="M827.5 553.5C842.136 553.5 854 569.946 854 590.234L854 674.266C854 694.554 865.865 711 880.5 711 865.865 711 854 727.446 854 747.734L854 831.766C854 852.054 842.136 868.5 827.5 868.5" stroke="#FFFFFF" stroke-width="1.33333" stroke-miterlimit="8" fill="none" fill-rule="evenodd"/><text fill="#FFFFFF" font-family="Josefin Sans,Josefin Sans_MSFontService,sans-serif" font-weight="300" font-size="17" transform="translate(907.865 714)">Blender</text><path d="M0.66667 1.37321 0.666772 45.0235-0.666562 45.0235-0.666663 1.37322ZM-7.24941 13.0496 1.99222e-08 0.000582759 7.24947 13.0496C7.42828 13.3714 7.31232 13.7773 6.99046 13.9561 6.66861 14.1349 6.26274 14.0189 6.08393 13.6971L-0.582768 1.6971 0.582775 1.69709-6.08386 13.6971C-6.26267 14.019-6.66854 14.1349-6.9904 13.9561-7.31225 13.7773-7.42822 13.3714-7.24941 13.0496Z" fill="#FFFFFF" transform="matrix(1 0 0 -1 437.5 793.524)"/><path d="M674.853 792.166 673.834 748.516 675.167 748.484 676.186 792.135ZM682.494 780.308 675.551 793.523 667.999 780.647C667.813 780.329 667.919 779.921 668.237 779.734 668.554 779.548 668.963 779.655 669.149 779.972L676.094 791.813 674.929 791.841 681.314 779.688C681.485 779.362 681.888 779.237 682.214 779.408 682.54 779.579 682.665 779.982 682.494 780.308Z" fill="#FFFFFF"/><path d="M0.66667 1.37334 0.666772 46.4944-0.666562 46.4944-0.666664 1.37334ZM-7.24941 13.0496 3.56212e-08 0.000582554 7.24947 13.0496C7.42828 13.3714 7.31231 13.7773 6.99046 13.9561 6.6686 14.1349 6.26274 14.0189 6.08393 13.6971L-0.582768 1.6971 0.582775 1.69709-6.08386 13.6971C-6.26267 14.019-6.66854 14.1349-6.9904 13.9561-7.31225 13.7773-7.42822 13.3714-7.24941 13.0496Z" fill="#FFFFFF" transform="matrix(1 0 0 -1 551.5 914.994)"/><path d="M0 0 0.000734908 73.1796" stroke="#FFFFFF" stroke-width="1.33333" stroke-miterlimit="8" fill="none" fill-rule="evenodd" transform="matrix(-1 -8.74228e-08 -8.74228e-08 1 437.501 506.5)"/></g></svg>